<svg width="92px" height="113px" viewBox="0 0 92 113" version="1.1" xmlns="http://www.w3.org/2000/svg" xmlns:xlink="http://www.w3.org/1999/xlink">
    <g id="Page-1" stroke="none" stroke-width="1" fill="none" fill-rule="evenodd">
        <g id="40-Color-Avatars" transform="translate(-604.000000, -1221.000000)">
            <g id="user-34" transform="translate(604.510000, 1221.597143)">
                <path d="M89.125,104.075 L89.125,109.825 L1.725,109.825 L1.725,104.075 C1.725,104.075 1.932,91.494 23.575,84.525 C23.575,84.525 31.418,80.431 33.925,77.625 C33.925,77.625 38.663,83.375 45.425,83.375 C52.187,83.375 56.925,77.625 56.925,77.625 C59.432,80.431 67.275,84.525 67.275,84.525 C89.056,91.425 89.125,104.075 89.125,104.075 L89.125,104.075 Z" id="Shape" fill="#546A79"></path>
                <path d="M70.725,38.525 C74.543,38.525 77.625,39.951 77.625,43.125 C77.625,46.069 73.991,49.473 70.426,49.956 C70.633,48.484 70.725,46.966 70.725,45.425 L70.725,38.525 L70.725,38.525 Z" id="Shape" fill="#FFD7A3"></path>
                <path d="M70.426,49.956 C69.184,58.949 64.308,66.493 56.925,70.311 C53.567,72.059 49.703,73.025 45.425,73.025 C41.147,73.025 37.283,72.059 33.925,70.311 C26.542,66.493 21.666,58.949 20.424,49.956 C20.217,48.484 20.125,46.966 20.125,45.425 L20.125,38.525 L20.125,32.775 C20.125,32.775 33.787,31.257 43.125,23.575 C43.125,23.575 59.432,35.075 70.725,35.075 L70.725,38.525 L70.725,45.425 C70.725,46.966 70.633,48.484 70.426,49.956 L70.426,49.956 Z" id="Shape" fill="#FFE1B2"></path>
                <path d="M43.125,23.575 C33.787,31.257 20.125,32.775 20.125,32.775 L20.125,16.675 C20.125,16.675 28.175,1.725 45.425,1.725 C62.675,1.725 70.725,16.675 70.725,16.675 L70.725,35.075 C59.432,35.075 43.125,23.575 43.125,23.575 L43.125,23.575 Z" id="Shape" fill="#A97C50"></path>
                <path d="M56.925,70.311 L56.925,77.625 C56.925,77.625 52.187,83.375 45.425,83.375 C38.663,83.375 33.925,77.625 33.925,77.625 L33.925,70.311 C37.283,72.059 41.147,73.025 45.425,73.025 C49.703,73.025 53.567,72.059 56.925,70.311 L56.925,70.311 Z" id="Shape" fill="#FFD7A3"></path>
                <path d="M20.125,45.425 C20.125,46.966 20.217,48.484 20.424,49.956 C16.859,49.473 13.225,46.069 13.225,43.125 C13.225,39.951 16.307,38.525 20.125,38.525 L20.125,45.425 L20.125,45.425 Z" id="Shape" fill="#FFD7A3"></path>
                <path d="M67.942,82.92719 C65.88741,81.84481 60.82902,78.97832 58.65,76.92166 L58.65,71.33266 C65.63878,67.33687 70.41795,60.16754 71.94492,51.39235 C75.90414,50.25868 79.35,46.54303 79.35,43.125 C79.35,39.66488 76.74916,37.36902 72.45,36.89338 L72.45,16.24007 L72.24392,15.85712 C72.15583,15.69359 70.03868,11.80935 65.69536,7.91568 C59.91937,2.737 52.90989,0 45.425,0 C37.94011,0 30.93063,2.737 25.15464,7.91568 C20.81132,11.80958 18.69417,15.69359 18.60608,15.85712 L18.4,16.24007 L18.4,36.89315 C14.10084,37.36879 11.5,39.66488 11.5,43.12477 C11.5,46.5428 14.94586,50.25868 18.90508,51.39235 C20.43366,60.17076 25.21352,67.33963 32.2,71.33266 L32.2,76.92143 C30.0196,78.97924 24.95638,81.84803 22.90409,82.9288 C0.48323,90.20278 0.00943,103.48344 0.00023,104.04648 L0,111.55 L90.85,111.55 L90.85,104.06557 C90.84678,103.49908 90.51535,90.1347 67.942,82.92719 L67.942,82.92719 Z M44.73661,81.62378 C40.24448,81.3188 36.77815,78.12801 35.65,76.95685 L35.65,72.97831 C38.68186,74.15338 41.95752,74.75 45.425,74.75 C48.89317,74.75 52.16952,74.15315 55.2,72.97877 L55.2,76.96053 C54.07668,78.13491 50.63266,81.32133 46.11362,81.62424 L44.73661,81.62378 L44.73661,81.62378 Z M75.9,43.125 C75.9,44.53398 74.37579,46.45218 72.38882,47.5111 C72.42677,46.82938 72.45,40.36086 72.45,40.36086 C75.52441,40.79188 75.9,42.38164 75.9,43.125 L75.9,43.125 Z M27.5494,10.40267 C32.73636,5.7891 38.75063,3.45 45.425,3.45 C52.09937,3.45 58.11364,5.7891 63.3006,10.40267 C66.50956,13.25651 68.40315,16.15451 69,17.14029 L69,33.25869 C58.77995,32.23749 45.07218,22.8275 44.16713,22.19891 C43.69264,21.80883 39.30355,18.16425 36.43821,14.46815 L33.71156,16.58208 C35.83101,19.31586 38.62827,21.94729 40.38202,23.4991 C33.78194,28.17822 25.52471,30.09849 21.85,30.76112 L21.85,17.14006 C22.44869,16.15175 24.34205,13.25536 27.5494,10.40267 L27.5494,10.40267 Z M14.95,43.125 C14.95,42.38164 15.32559,40.79188 18.4,40.36086 C18.4,40.36086 18.42323,46.82961 18.46118,47.5111 C16.47421,46.45218 14.95,44.53398 14.95,43.125 L14.95,43.125 Z M22.13221,49.71588 C21.94499,48.38349 21.85,46.94001 21.85,45.425 L21.85,35.075 L21.85,34.26977 C25.61096,33.65383 35.4683,31.56313 43.19906,25.71331 C46.87239,28.16373 59.11598,35.87103 69,36.72318 L69,45.425 C69,46.94001 68.90501,48.38349 68.71733,49.72002 C67.53099,58.30983 62.94387,65.25629 56.12874,68.78104 C52.91725,70.45245 49.31614,71.3 45.425,71.3 C41.53386,71.3 37.93275,70.45245 34.71735,68.77874 C27.90613,65.25629 23.31924,58.30983 22.13221,49.71588 L22.13221,49.71588 Z M87.4,108.1 L3.45,108.1 L3.45,104.10674 C3.46104,103.90434 3.65792,101.13123 6.11386,97.66329 C10.43809,91.55679 18.28362,88.04101 24.10377,86.16697 C24.10377,86.16697 30.64957,82.74434 33.86658,80.04897 C35.37607,81.47037 38.14458,83.64341 41.75213,84.60826 L32.70508,93.65508 L35.14469,96.09469 L45.42477,85.81438 L55.70485,96.09469 L58.14446,93.65508 L49.09741,84.60826 C52.70496,83.64341 55.47347,81.47037 56.98296,80.04897 C60.19997,82.74434 66.75359,86.16927 66.75359,86.16927 C72.60847,88.02399 80.48942,91.51838 84.78467,97.63155 C87.24981,101.13997 87.39379,103.94689 87.39931,104.09363 L87.39931,108.1 L87.4,108.1 L87.4,108.1 Z" id="Shape" fill="#231F20"></path>
                <rect id="Rectangle-path" fill="#231F20" x="43.125" y="93.15" width="4.6" height="3.45"></rect>
                <rect id="Rectangle-path" fill="#231F20" x="43.125" y="100.05" width="4.6" height="3.45"></rect>
                <path d="M45.425,54.05 L50.025,54.05 L50.025,50.6 L47.15,50.6 L47.15,43.125 L43.7,43.125 L43.7,52.325 C43.7,53.27789 44.47211,54.05 45.425,54.05 L45.425,54.05 Z" id="Shape" fill="#231F20"></path>
            </g>
        </g>
    </g>
</svg>