
<svg width="92px" height="110px" viewBox="0 0 92 110" version="1.1" xmlns="http://www.w3.org/2000/svg" xmlns:xlink="http://www.w3.org/1999/xlink">
    <g id="Page-1" stroke="none" stroke-width="1" fill="none" fill-rule="evenodd">
        <g id="40-Color-Avatars" transform="translate(-138.000000, -1439.000000)">
            <g id="user" transform="translate(138.990000, 1439.538571)">
                <path d="M67.275,82.225 L45.425,92.575 L23.575,82.225 C23.575,82.225 31.418,78.131 33.925,75.348 C34.339,75.808 38.962,81.075 45.425,81.075 C52.187,81.075 56.925,75.325 56.925,75.325 C59.432,78.131 67.275,82.225 67.275,82.225 L67.275,82.225 Z" id="Shape" fill="#AFB6BB"></path>
                <path d="M89.125,101.775 L89.125,107.525 L45.425,107.525 L45.425,92.575 L67.275,82.225 C89.056,89.125 89.125,101.775 89.125,101.775 L89.125,101.775 Z" id="Shape" fill="#FFD248"></path>
                <path d="M45.425,92.575 L45.425,107.525 L1.725,107.525 L1.725,101.775 C1.725,101.775 1.932,89.194 23.575,82.225 L45.425,92.575 L45.425,92.575 Z" id="Shape" fill="#FFD248"></path>
                <path d="M44.275,22.448 C44.229,29.325 20.125,30.475 20.125,30.475 C20.125,30.475 18.929,1.725 45.425,1.725 C71.875,1.725 70.725,30.475 70.725,30.475 C55.637,30.475 44.275,22.448 44.275,22.448 L44.275,22.448 Z" id="Shape" fill="#9B8579"></path>
                <path d="M70.725,36.225 C74.543,36.225 77.625,37.651 77.625,40.825 C77.625,43.769 73.991,47.173 70.426,47.656 C70.61,46.184 70.725,44.666 70.725,43.125 L70.725,36.225 L70.725,36.225 Z" id="Shape" fill="#FFD7A3"></path>
                <path d="M70.426,47.656 L70.426,47.679 C69.184,56.672 64.308,64.193 56.925,68.011 C56.879,68.057 56.81,68.08 56.764,68.103 C53.452,69.782 49.634,70.725 45.425,70.725 C41.216,70.725 37.398,69.782 34.086,68.103 C34.04,68.08 33.971,68.057 33.925,68.011 C26.542,64.193 21.666,56.672 20.424,47.679 L20.424,47.656 C20.24,46.184 20.125,44.666 20.125,43.125 L20.125,36.225 L20.125,30.475 C20.125,30.475 44.229,29.325 44.275,22.448 C44.275,22.448 55.637,30.475 70.725,30.475 L70.725,36.225 L70.725,43.125 C70.725,44.666 70.61,46.184 70.426,47.656 L70.426,47.656 Z" id="Shape" fill="#FFE1B2"></path>
                <path d="M56.925,68.011 L56.925,75.325 C56.925,75.325 52.187,81.075 45.425,81.075 C38.962,81.075 34.339,75.808 33.925,75.348 L33.925,75.325 L33.925,68.011 C33.971,68.057 34.04,68.08 34.086,68.103 C37.398,69.782 41.216,70.725 45.425,70.725 C49.634,70.725 53.452,69.782 56.764,68.103 C56.81,68.08 56.879,68.057 56.925,68.011 L56.925,68.011 Z" id="Shape" fill="#FFD7A3"></path>
                <path d="M20.125,43.125 C20.125,44.666 20.24,46.184 20.424,47.656 C16.859,47.173 13.225,43.769 13.225,40.825 C13.225,37.651 16.307,36.225 20.125,36.225 L20.125,43.125 L20.125,43.125 Z" id="Shape" fill="#FFD7A3"></path>
                <path d="M67.94223,80.62696 C65.88764,79.54481 60.82902,76.67832 58.65,74.62166 L58.65,69.03404 C65.64637,65.03526 70.42669,57.86478 71.94906,49.0912 C75.90644,47.95615 79.35,44.24188 79.35,40.825 C79.35,37.36511 76.74916,35.06902 72.45,34.59338 L72.45,30.50766 C72.45529,30.3531 72.45,28.75023 72.45,28.75023 L72.43735,28.75023 C72.28831,24.64174 71.19949,14.42307 64.34296,7.28709 C59.69742,2.4518 53.3324,0 45.425,0 C37.49644,0 31.11992,2.45663 26.47254,7.30135 C19.58266,14.48379 18.53961,24.77744 18.40736,28.83027 L18.4,28.83073 C18.4,28.83073 18.39425,30.34712 18.4,30.50858 L18.4,34.59338 C14.10084,35.06902 11.5,37.36511 11.5,40.825 C11.5,44.24188 14.94356,47.95615 18.90094,49.0912 C20.42331,57.86478 25.20409,65.03526 32.2,69.03404 L32.2,74.64052 C30.01592,76.68522 24.95615,79.54849 22.90432,80.6288 C0.48323,87.90278 0.00943,101.18367 0.00023,101.74648 L0,109.25 L90.85,109.25 L90.85,101.76557 C90.84678,101.19908 90.51535,87.8347 67.94223,80.62696 L67.94223,80.62696 Z M45.425,90.66623 L27.3562,82.10747 C29.39377,80.93056 32.02589,79.30055 33.87647,77.75633 C36.00328,79.74031 40.14121,82.8 45.425,82.8 C50.82379,82.8 54.99484,79.6214 56.98342,77.7492 C58.83492,79.30055 61.46152,80.93056 63.49518,82.10701 L45.425,90.66623 L45.425,90.66623 Z M55.2,74.66053 C54.0201,75.89402 50.28099,79.35 45.425,79.35 C40.76336,79.35 37.12545,76.18543 35.65,74.66812 L35.65,70.68199 C38.69037,71.85476 41.96695,72.45 45.425,72.45 C48.88489,72.45 52.16285,71.8543 55.2,70.68245 L55.2,74.66053 L55.2,74.66053 Z M75.9,40.825 C75.9,42.23513 74.37349,44.15517 72.38422,45.21363 C72.42677,44.50431 72.45,38.06086 72.45,38.06086 C75.52441,38.49188 75.9,40.08164 75.9,40.825 L75.9,40.825 Z M28.96229,9.68967 C32.93393,5.54921 38.47279,3.45 45.425,3.45 C52.34892,3.45 57.87191,5.54001 61.84079,9.66207 C67.75547,15.80491 68.80082,24.96006 68.97378,28.71113 C55.51027,28.13314 45.37417,21.11216 45.26906,21.03833 L42.57231,19.13301 L42.55,22.4365 C42.5408,23.82616 39.73549,25.84418 31.89042,27.3401 C28.0117,28.07955 24.09135,28.4579 21.87415,28.62971 C22.04642,24.84161 23.09246,15.80859 28.96229,9.68967 L28.96229,9.68967 Z M14.95,40.825 C14.95,40.08164 15.32559,38.49188 18.4,38.06086 C18.4,38.06086 18.42323,44.50408 18.46578,45.21363 C16.47651,44.15517 14.95,42.23513 14.95,40.825 L14.95,40.825 Z M22.149,47.55871 L22.13566,47.44187 C21.94361,45.90386 21.85,44.49166 21.85,43.12477 L21.85,32.09328 C24.07962,31.9286 28.26424,31.54151 32.50498,30.7349 C39.35369,29.43241 43.54751,27.56665 45.19592,25.07046 C48.94377,27.27892 57.82315,31.74 69,32.16688 L69,43.125 C69,44.49212 68.90662,45.90432 68.71434,47.44187 L68.701,47.54836 L68.701,47.55871 C67.49189,56.07906 62.91558,62.97101 56.13265,66.47874 L55.89575,66.60133 L55.88057,66.61651 C52.71899,68.19822 49.20206,69 45.425,69 C41.65116,69 38.13699,68.1996 34.96966,66.61651 L34.71735,66.47874 C27.93465,62.97101 23.35834,56.07929 22.149,47.55871 L22.149,47.55871 Z M3.45,101.79593 C3.46288,101.45139 4.07721,90.55353 23.46069,84.07949 L43.7,93.66658 L43.7,105.8 L3.45,105.8 L3.45,101.79593 L3.45,101.79593 Z M87.4,105.8 L47.15,105.8 L47.15,93.66658 L67.39483,84.07696 C73.17266,85.97998 80.64467,89.43872 84.78513,95.33178 C87.25027,98.8402 87.39425,101.64712 87.4,101.79386 L87.4,105.8 L87.4,105.8 L87.4,105.8 Z" id="Shape" fill="#231F20"></path>
                <path d="M45.425,51.75 L50.025,51.75 L50.025,48.3 L47.15,48.3 L47.15,40.825 L43.7,40.825 L43.7,50.025 C43.7,50.97766 44.47234,51.75 45.425,51.75 L45.425,51.75 Z" id="Shape" fill="#231F20"></path>
            </g>
        </g>
    </g>
</svg>