
<svg width="92px" height="113px" viewBox="0 0 92 113" version="1.1" xmlns="http://www.w3.org/2000/svg" xmlns:xlink="http://www.w3.org/1999/xlink">
    <g id="Page-1" stroke="none" stroke-width="1" fill="none" fill-rule="evenodd">
        <g id="40-Color-Avatars" transform="translate(-1071.000000, -1657.000000)">
            <g id="user-1" transform="translate(1071.180000, 1657.480000)">
                <path d="M89.125,104.075 L89.125,109.825 L1.725,109.825 L1.725,104.075 C1.725,104.075 1.932,91.494 23.575,84.525 C23.575,84.525 28.244,94.875 45.425,94.875 C62.606,94.875 67.275,84.525 67.275,84.525 C89.056,91.425 89.125,104.075 89.125,104.075 L89.125,104.075 Z" id="Shape" fill="#DD363B"></path>
                <path d="M70.725,12.075 L70.725,30.475 C61.594,30.475 62.675,22.425 62.675,22.425 L28.175,22.425 C28.175,22.425 29.256,30.475 20.125,30.475 L20.125,12.075 C20.125,12.075 21.344,1.725 45.425,1.725 C69.506,1.725 70.725,12.075 70.725,12.075 L70.725,12.075 Z" id="Shape" fill="#58595B"></path>
                <path d="M20.125,45.425 C20.125,46.966 20.24,48.484 20.424,49.956 C16.859,49.473 13.225,46.069 13.225,43.125 C13.225,39.951 16.307,38.525 20.125,38.525 L20.125,45.425 L20.125,45.425 Z" id="Shape" fill="#846954"></path>
                <path d="M70.725,38.525 C74.543,38.525 77.625,39.951 77.625,43.125 C77.625,46.069 73.991,49.473 70.426,49.956 C70.61,48.484 70.725,46.966 70.725,45.425 L70.725,38.525 L70.725,38.525 Z" id="Shape" fill="#846954"></path>
                <path d="M56.925,77.625 C59.432,80.431 67.275,84.525 67.275,84.525 C67.275,84.525 62.606,94.875 45.425,94.875 C28.244,94.875 23.575,84.525 23.575,84.525 C23.575,84.525 31.418,80.431 33.925,77.625 L33.925,75.325 L33.925,70.311 C33.971,70.357 34.04,70.38 34.086,70.403 C37.398,72.082 41.216,73.025 45.425,73.025 C49.634,73.025 53.452,72.082 56.764,70.403 C56.81,70.38 56.879,70.357 56.925,70.311 L56.925,75.325 L56.925,77.625 L56.925,77.625 Z" id="Shape" fill="#846954"></path>
                <path d="M70.725,32.775 L70.725,38.525 L70.725,45.425 C70.725,46.966 70.61,48.484 70.426,49.956 L70.426,49.979 C69.184,58.972 64.308,66.493 56.925,70.311 C56.879,70.357 56.81,70.38 56.764,70.403 C53.452,72.082 49.634,73.025 45.425,73.025 C41.216,73.025 37.398,72.082 34.086,70.403 C34.04,70.38 33.971,70.357 33.925,70.311 C26.542,66.493 21.666,58.972 20.424,49.979 L20.424,49.956 C20.24,48.484 20.125,46.966 20.125,45.425 L20.125,38.525 L20.125,32.775 L20.125,30.475 C29.256,30.475 28.175,22.425 28.175,22.425 L62.675,22.425 C62.675,22.425 61.594,30.475 70.725,30.475 L70.725,32.775 L70.725,32.775 Z" id="Shape" fill="#A18369"></path>
                <path d="M40.825,36.225 L40.825,41.975 C40.825,44.505 38.755,46.575 36.225,46.575 L31.625,46.575 C29.095,46.575 27.025,44.505 27.025,41.975 L27.025,39.675 L27.025,36.225 L40.825,36.225 L40.825,36.225 Z" id="Shape" fill="#AFB6BB"></path>
                <path d="M63.825,39.675 L63.825,41.975 C63.825,44.505 61.755,46.575 59.225,46.575 L54.625,46.575 C52.095,46.575 50.025,44.505 50.025,41.975 L50.025,36.225 L63.825,36.225 L63.825,39.675 L63.825,39.675 Z" id="Shape" fill="#AFB6BB"></path>
                <path d="M67.942,82.92696 C65.88787,81.84504 60.82994,78.97924 58.65,76.92281 L58.65,71.33427 C65.64614,67.33549 70.42669,60.16524 71.94906,51.39143 C75.90644,50.25615 79.35,46.54188 79.35,43.125 C79.35,39.66511 76.74916,37.36902 72.45,36.89338 L72.45,11.9738 L72.43804,11.87306 C72.381,11.38845 70.74869,0 45.425,0 C20.10131,0 18.469,11.38845 18.41196,11.87329 L18.4,11.9738 L18.4,36.89338 C14.10084,37.36902 11.5,39.66511 11.5,43.125 C11.5,46.54188 14.94356,50.25615 18.90094,51.3912 C20.42331,60.16478 25.20409,67.33526 32.2,71.33404 L32.2,76.92281 C30.01891,78.98062 24.95592,81.84849 22.90432,82.92903 C0.48323,90.20301 0.00943,103.48367 0.00023,104.04671 L0,111.55 L90.85,111.55 L90.85,104.06557 C90.84678,103.49908 90.51535,90.1347 67.942,82.92696 L67.942,82.92696 Z M48.3,34.5 L48.3,38.78674 C47.37724,38.31846 46.35535,37.95 45.425,37.95 C44.49465,37.95 43.47276,38.31869 42.55,38.78674 L42.55,34.5 L25.3,34.5 L25.3,37.95 L21.85,37.95 L21.85,32.10685 C24.41243,31.81728 26.4224,30.8545 27.83966,29.23392 C29.29165,27.57424 29.76177,25.58911 29.89287,24.15 L60.95736,24.15 C61.08823,25.58911 61.55858,27.57401 63.01057,29.23392 C64.42783,30.8545 66.4378,31.81728 69.00023,32.10685 L69.00023,37.95 L65.55023,37.95 L65.55023,34.5 L48.3,34.5 L48.3,34.5 Z M62.1,37.95 L62.1,41.975 C62.1,43.56039 60.81039,44.85 59.225,44.85 L54.625,44.85 C53.03961,44.85 51.75,43.56039 51.75,41.975 L51.75,37.95 L62.1,37.95 L62.1,37.95 Z M39.1,37.95 L39.1,41.975 C39.1,43.56039 37.81039,44.85 36.225,44.85 L31.625,44.85 C30.03961,44.85 28.75,43.56039 28.75,41.975 L28.75,37.95 L39.1,37.95 L39.1,37.95 Z M75.9,43.125 C75.9,44.53513 74.37349,46.4554 72.38422,47.51363 C72.42677,46.80408 72.45,40.36086 72.45,40.36086 C75.52441,40.79188 75.9,42.38164 75.9,43.125 L75.9,43.125 Z M25.11922,8.02286 C27.9657,5.93676 33.79919,3.45 45.425,3.45 C57.05081,3.45 62.8843,5.93676 65.73078,8.02286 C68.35646,9.94727 68.90685,11.81579 69,12.22887 L69,28.62465 C67.52087,28.39419 66.38835,27.84518 65.62383,26.98153 C64.08835,25.24733 64.38275,22.67041 64.38459,22.65454 L64.64702,20.7 L26.20298,20.7 L26.46541,22.65454 C26.46886,22.67984 26.76188,25.22617 25.24319,26.96244 C24.47821,27.8369 23.34017,28.39258 21.85023,28.62465 L21.85023,12.22887 C21.94315,11.81579 22.49354,9.94727 25.11922,8.02286 L25.11922,8.02286 Z M14.95,43.125 C14.95,42.38164 15.32559,40.79188 18.4,40.36086 C18.4,40.36086 18.42346,46.80408 18.46578,47.51363 C16.47651,46.4554 14.95,44.53513 14.95,43.125 L14.95,43.125 Z M22.149,49.85871 L22.13566,49.7421 C21.94338,48.20386 21.85,46.79189 21.85,45.425 L21.85,41.4 L25.3,41.4 L25.3,41.975 C25.3,45.46272 28.13751,48.3 31.625,48.3 L36.225,48.3 C39.40682,48.3 42.04653,45.93767 42.48491,42.87522 C43.53969,42.11185 44.84149,41.4 45.425,41.4 C46.00414,41.4 47.30755,42.113 48.36532,42.8766 C48.80439,45.93859 51.44364,48.3 54.625,48.3 L59.225,48.3 C62.71249,48.3 65.55,45.46272 65.55,41.975 L65.55,41.4 L69,41.4 L69,45.425 C69,46.79189 68.90662,48.20409 68.71434,49.7421 L68.70583,49.82467 C67.50385,58.36112 62.92455,65.26641 56.13265,68.77874 L55.89575,68.90133 L55.88057,68.91651 C52.71899,70.49822 49.20229,71.3 45.425,71.3 C41.65116,71.3 38.13699,70.4996 34.96966,68.91651 L34.71735,68.77874 C27.93465,65.27124 23.35857,58.37929 22.149,49.85871 L22.149,49.85871 Z M35.21139,78.77431 L35.65,78.28326 L35.65,72.98199 C38.69014,74.15476 41.96672,74.75 45.425,74.75 C48.88489,74.75 52.16285,74.1543 55.2,72.98245 L55.2,78.28326 L55.63861,78.77431 C57.62995,81.00324 62.30884,83.7637 64.84574,85.17245 C64.19415,86.05933 63.13891,87.2689 61.56479,88.46904 C57.54761,91.53126 51.96643,93.15 45.425,93.15 C38.88357,93.15 33.30239,91.53126 29.28521,88.46881 C27.7104,87.26821 26.65493,86.05795 26.00403,85.17245 C28.5407,83.76393 33.21982,81.00324 35.21139,78.77431 L35.21139,78.77431 Z M87.4,108.1 L3.45,108.1 L3.45,104.10674 C3.46104,103.90434 3.65792,101.13123 6.11386,97.66329 C10.12069,92.00483 17.15041,88.57185 22.79116,86.60742 C24.79814,89.6425 30.97479,96.6 45.425,96.6 C59.88464,96.6 66.05991,89.63353 68.06252,86.60167 C73.73731,88.54747 80.80222,91.96297 84.78536,97.63155 C87.2505,101.13997 87.39448,103.94689 87.4,104.09363 L87.4,108.1 L87.4,108.1 L87.4,108.1 Z" id="Shape" fill="#231F20"></path>
                <path d="M45.425,54.05 L50.025,54.05 L50.025,50.6 L47.15,50.6 L47.15,46.575 L43.7,46.575 L43.7,52.325 C43.7,53.27766 44.47211,54.05 45.425,54.05 L45.425,54.05 Z" id="Shape" fill="#231F20"></path>
            </g>
        </g>
    </g>
</svg>