<svg width="91px" height="113px" viewBox="0 0 91 113" version="1.1" xmlns="http://www.w3.org/2000/svg" xmlns:xlink="http://www.w3.org/1999/xlink">
    <g id="Page-1" stroke="none" stroke-width="1" fill="none" fill-rule="evenodd">
        <g id="40-Color-Avatars" transform="translate(-140.000000, -130.000000)">
            <g id="user-7" transform="translate(140.140000, 130.740000)">
                <path d="M63.089,82.156 C65.343,83.536 67.275,84.525 67.275,84.525 C89.056,91.425 89.125,104.075 89.125,104.075 L89.125,109.825 L1.725,109.825 L1.725,104.075 C1.725,104.075 1.932,91.494 23.575,84.525 C23.575,84.525 25.553,83.49 27.853,82.11 C30.107,80.73 32.683,79.028 33.925,77.625 C33.925,77.625 38.663,90.275 45.425,90.275 C52.187,90.275 56.925,77.625 56.925,77.625 C58.19,79.028 60.812,80.776 63.089,82.156 L63.089,82.156 Z" id="Shape" fill="#AFB6BB"></path>
                <path d="M33.925,70.311 C37.283,72.059 41.147,73.025 45.425,73.025 C49.703,73.025 53.567,72.059 56.925,70.311 L56.925,77.625 C56.925,77.625 52.187,90.275 45.425,90.275 C38.663,90.275 33.925,77.625 33.925,77.625 L33.925,70.311 L33.925,70.311 Z" id="Shape" fill="#FFE1B2"></path>
                <path d="M56.925,70.311 C53.567,72.059 49.703,73.025 45.425,73.025 C41.147,73.025 37.283,72.059 33.925,70.311 C25.323,65.872 20.125,56.396 20.125,45.425 L20.125,28.175 C20.125,28.175 31.533,27.117 37.375,23.575 L45.425,23.575 L53.475,23.575 C57.891,27.025 70.725,28.175 70.725,28.175 L70.725,45.425 C70.725,56.396 65.527,65.872 56.925,70.311 L56.925,70.311 Z" id="Shape" fill="#FFE1B2"></path>
                <path d="M76.475,29.325 L76.475,51.175 C76.475,63.549 74.244,78.614 63.089,82.156 C60.812,80.776 58.19,79.028 56.925,77.625 L56.925,70.311 C65.527,65.872 70.725,56.396 70.725,45.425 L70.725,28.175 C70.725,28.175 57.891,27.025 53.475,23.575 L45.425,23.575 L37.375,23.575 C31.533,27.117 20.125,28.175 20.125,28.175 L20.125,45.425 C20.125,56.396 25.323,65.872 33.925,70.311 L33.925,77.625 C32.683,79.028 30.107,80.73 27.853,82.11 C16.813,78.476 14.375,63.503 14.375,51.175 L14.375,29.325 C14.375,14.076 26.726,1.725 41.975,1.725 L48.875,1.725 C64.124,1.725 76.475,14.076 76.475,29.325 L76.475,29.325 Z" id="Shape" fill="#FFD248"></path>
                <path d="M67.93832,82.92581 C67.75639,82.83082 67.37942,82.63164 66.87595,82.35564 C74.39304,77.98955 78.2,67.52915 78.2,51.175 L78.2,29.325 C78.2,13.15508 65.04492,0 48.875,0 L41.975,0 C25.80508,0 12.65,13.15508 12.65,29.325 L12.65,51.175 C12.65,67.17495 16.59174,77.81935 24.09526,82.28181 C23.5267,82.59599 23.1012,82.82392 22.90156,82.92972 C0.48438,90.20393 0.0092,103.48367 0,104.04671 L0,111.55 L90.85,111.55 L90.85,104.06557 C90.84678,103.49908 90.51558,90.13309 67.93832,82.92581 L67.93832,82.92581 Z M16.1,51.175 L16.1,29.325 C16.1,15.05741 27.70741,3.45 41.975,3.45 L48.875,3.45 C63.14259,3.45 74.75,15.05741 74.75,29.325 L74.75,51.175 C74.75,58.55202 73.93626,64.69187 72.33155,69.42343 C70.43037,75.02899 67.3969,78.66621 63.29094,80.25528 C61.20369,78.95739 59.59737,77.80141 58.65,76.91614 L58.65,71.33404 C62.74883,68.9908 66.1618,65.49066 68.56024,61.15194 C71.10496,56.54964 72.45,51.11129 72.45,45.425 L72.44977,26.59812 L70.8791,26.4569 C67.44888,26.14847 57.82591,24.78503 54.53691,22.2157 L54.06909,21.85 L36.89292,21.85 L36.48076,22.10001 C31.05046,25.39223 20.07555,26.44701 19.96538,26.45736 L18.4,26.60341 L18.4,45.425 C18.4,51.11129 19.74504,56.54964 22.28976,61.15217 C24.68843,65.49066 28.1014,68.99103 32.2,71.33427 L32.2,76.92419 C31.29679,77.77818 29.77166,78.8785 27.65612,80.20284 C22.21639,78.02635 16.1,71.13831 16.1,51.175 L16.1,51.175 Z M56.12851,68.78081 C52.91725,70.45245 49.31591,71.3 45.425,71.3 C41.53409,71.3 37.93275,70.45245 34.72149,68.78081 L34.7162,68.77805 C30.80942,66.76187 27.55653,63.54762 25.30897,59.48283 C23.046,55.38998 21.85,50.52893 21.85,45.425 L21.85,29.71531 C25.16982,29.29418 32.96015,28.06023 37.84236,25.3 L52.91725,25.3 C57.01792,28.06966 65.40556,29.3089 69,29.72842 L69,45.425 C69,50.52893 67.804,55.38998 65.54103,59.48283 C63.2937,63.54762 60.04081,66.7621 56.12851,68.78081 L56.12851,68.78081 Z M35.65,72.97831 C38.68186,74.15315 41.95752,74.75 45.425,74.75 C48.8934,74.75 52.16998,74.15315 55.2,72.97877 L55.2,77.29863 C54.87386,78.10915 53.83035,80.57015 52.25899,83.01827 C50.63933,85.54183 48.139,88.55 45.425,88.55 C42.72342,88.55 40.23321,85.56644 38.61999,83.06358 C37.03943,80.61132 35.97936,78.11444 35.65,77.29794 L35.65,72.97831 L35.65,72.97831 Z M87.4,108.1 L3.45,108.1 L3.45,104.09593 C3.46288,103.74748 4.08779,92.61203 24.10377,86.16697 C24.10377,86.16697 26.42401,84.97902 28.75368,83.58108 C30.66291,82.41222 32.1563,81.40574 33.29388,80.51725 C33.86589,81.73487 34.67434,83.30324 35.68749,84.88173 C38.71912,89.60501 41.99524,92 45.425,92 C48.85476,92 52.13088,89.60501 55.16251,84.88173 C56.17796,83.29956 56.98802,81.72751 57.56026,80.50851 C58.74775,81.43679 60.29519,82.47961 62.18832,83.62708 C64.47222,85.02548 66.75405,86.16927 66.75405,86.16927 C72.60916,88.02399 80.48988,91.51815 84.78513,97.63132 C87.25027,101.13974 87.39425,103.94666 87.4,104.0934 L87.4,108.1 L87.4,108.1 Z" id="Shape" fill="#231F20"></path>
                <path d="M47.15,43.125 L43.7,43.125 L43.7,52.325 C43.7,53.27766 44.47234,54.05 45.425,54.05 L50.025,54.05 L50.025,50.6 L47.15,50.6 L47.15,43.125 L47.15,43.125 Z" id="Shape" fill="#231F20"></path>
            </g>
        </g>
    </g>
</svg>