
<svg width="92px" height="113px" viewBox="0 0 92 113" version="1.1" xmlns="http://www.w3.org/2000/svg" xmlns:xlink="http://www.w3.org/1999/xlink">
    <g id="Page-1" stroke="none" stroke-width="1" fill="none" fill-rule="evenodd">
        <g id="40-Color-Avatars" transform="translate(-836.000000, -1439.000000)">
            <g id="user-39" transform="translate(836.580000, 1439.538571)">
                <path d="M70.725,30.475 C70.725,30.475 61.525,33.925 61.525,24.725 L29.325,24.725 C29.325,33.925 20.125,30.475 20.125,30.475 L20.125,1.725 L70.725,1.725 L70.725,30.475 L70.725,30.475 Z" id="Shape" fill="#FFD248"></path>
                <path d="M73.071,86.71 C89.079,93.771 89.125,104.075 89.125,104.075 L89.125,109.825 L73.025,109.825 L73.025,86.825 L73.071,86.71 L73.071,86.71 Z" id="Shape" fill="#FFE1B2"></path>
                <path d="M70.725,38.525 C74.543,38.525 77.625,39.951 77.625,43.125 C77.625,46.069 73.991,49.473 70.426,49.956 C70.61,48.484 70.725,46.966 70.725,45.425 L70.725,38.525 L70.725,38.525 Z" id="Shape" fill="#FFD7A3"></path>
                <path d="M17.779,86.733 C19.527,85.951 21.436,85.215 23.575,84.525 C23.575,84.525 25.231,83.651 27.301,82.432 C28.796,83.628 36.225,89.125 45.425,89.125 C54.625,89.125 62.054,83.628 63.549,82.432 C65.596,83.651 67.275,84.525 67.275,84.525 C69.414,85.192 71.323,85.928 73.071,86.71 L73.025,86.825 L73.025,109.825 L17.825,109.825 L17.825,86.825 L17.779,86.733 L17.779,86.733 Z" id="Shape" fill="#58595B"></path>
                <path d="M20.125,30.475 C20.125,30.475 29.325,33.925 29.325,24.725 L61.525,24.725 C61.525,33.925 70.725,30.475 70.725,30.475 L70.725,32.775 L70.725,38.525 L70.725,45.425 C70.725,46.966 70.61,48.484 70.426,49.956 L70.426,49.979 C69.184,58.972 64.308,66.493 56.925,70.311 C56.879,70.357 56.81,70.38 56.764,70.403 C53.452,72.082 49.634,73.025 45.425,73.025 C41.216,73.025 37.398,72.082 34.086,70.403 C34.04,70.38 33.971,70.357 33.925,70.311 C26.542,66.493 21.666,58.972 20.424,49.979 L20.424,49.956 C20.24,48.484 20.125,46.966 20.125,45.425 L20.125,38.525 L20.125,32.775 L20.125,30.475 L20.125,30.475 L20.125,30.475 Z" id="Shape" fill="#FFE1B2"></path>
                <path d="M56.925,70.311 L56.925,76.475 L56.925,77.625 C58.121,78.982 60.605,80.638 62.813,81.995 C63.066,82.156 63.319,82.294 63.549,82.432 C62.054,83.628 54.625,89.125 45.425,89.125 C36.225,89.125 28.796,83.628 27.301,82.432 C27.807,82.133 28.336,81.811 28.865,81.489 C30.843,80.247 32.867,78.821 33.925,77.625 L33.925,76.475 L33.925,70.311 C33.971,70.357 34.04,70.38 34.086,70.403 C37.398,72.082 41.216,73.025 45.425,73.025 C49.634,73.025 53.452,72.082 56.764,70.403 C56.81,70.38 56.879,70.357 56.925,70.311 L56.925,70.311 Z" id="Shape" fill="#FFD7A3"></path>
                <path d="M20.125,45.425 C20.125,46.966 20.24,48.484 20.424,49.956 C16.859,49.473 13.225,46.069 13.225,43.125 C13.225,39.951 16.307,38.525 20.125,38.525 L20.125,45.425 L20.125,45.425 Z" id="Shape" fill="#FFD7A3"></path>
                <path d="M17.825,86.825 L17.825,109.825 L1.725,109.825 L1.725,104.075 C1.725,104.075 1.886,93.863 17.779,86.733 L17.825,86.825 L17.825,86.825 Z" id="Shape" fill="#FFE1B2"></path>
                <path d="M73.77549,85.13542 C71.88397,84.28925 69.97382,83.5659 67.94016,82.92581 C67.51144,82.6988 66.08751,81.93612 64.4368,80.95287 C64.34457,80.89767 59.62106,77.84557 58.65023,76.92695 L58.65023,71.33427 C65.64637,67.33549 70.42692,60.16524 71.94929,51.39143 C75.90644,50.25615 79.35,46.54188 79.35,43.125 C79.35,39.66511 76.74916,37.36902 72.45,36.89338 L72.45,0 L18.4,0 L18.4,36.89338 C14.10084,37.36902 11.5,39.66511 11.5,43.125 C11.5,46.54188 14.94356,50.25615 18.90094,51.3912 C20.42331,60.16478 25.20409,67.33526 32.2,71.33404 L32.2,76.92626 C31.50379,77.58682 30.24178,78.58686 27.95765,80.02183 C27.43877,80.33785 26.92012,80.65341 26.42585,80.94551 C24.74225,81.93704 23.32246,82.70409 22.89857,82.93064 C20.82052,83.60615 18.91405,84.33548 17.0729,85.15888 C0.37076,92.65205 0.00759,103.58579 0.00023,104.04763 L0,111.55 L90.85,111.55 L90.85,104.06718 C90.84793,103.60074 90.60551,92.5589 73.77549,85.13542 L73.77549,85.13542 Z M75.9,43.125 C75.9,44.53513 74.37349,46.4554 72.38422,47.51363 C72.42677,46.80408 72.45,40.36086 72.45,40.36086 C75.52441,40.79188 75.9,42.38164 75.9,43.125 L75.9,43.125 Z M69,3.45 L69,29.17044 C67.73523,29.43839 65.89017,29.58398 64.7174,28.77116 C63.74381,28.09634 63.25,26.73497 63.25,24.72477 L63.25,23 L27.6,23 L27.6,24.725 C27.6,26.73083 27.10849,28.09082 26.13904,28.76679 C24.96466,29.58582 23.12719,29.44391 21.85,29.17113 L21.85,3.45 L69,3.45 L69,3.45 Z M14.95,43.125 C14.95,42.38164 15.32559,40.79188 18.4,40.36086 C18.4,40.36086 18.42346,46.80408 18.46578,47.51363 C16.47651,46.4554 14.95,44.53513 14.95,43.125 L14.95,43.125 Z M22.149,49.85871 L22.13566,49.7421 C21.94338,48.20386 21.85,46.79189 21.85,45.425 L21.85,32.68576 C23.6325,32.97211 26.0981,32.99235 28.09772,31.60706 C29.68587,30.50628 30.63968,28.77576 30.94351,26.45 L59.90649,26.45 C60.21032,28.77576 61.16413,30.50628 62.75228,31.60706 C64.7519,32.99281 67.2175,32.97234 69,32.68576 L69,45.425 C69,46.79189 68.90662,48.20409 68.71434,49.7421 L68.70583,49.82467 C67.50385,58.36112 62.92455,65.26641 56.13265,68.77874 L55.89575,68.90133 L55.88057,68.91651 C52.71899,70.49822 49.20229,71.3 45.425,71.3 C41.65116,71.3 38.13699,70.4996 34.96966,68.91651 L34.71735,68.77874 C27.93465,65.27124 23.35857,58.37929 22.149,49.85871 L22.149,49.85871 Z M35.21714,78.76787 L35.65,78.27843 L35.65,72.98199 C38.69014,74.15476 41.96672,74.75 45.425,74.75 C48.88489,74.75 52.16285,74.1543 55.2,72.98245 L55.2,78.27659 L55.63102,78.76534 C56.5524,79.81092 58.10076,81.0267 60.44124,82.53941 C57.49448,84.46451 51.93331,87.4 45.425,87.4 C38.92267,87.4 33.3661,84.47003 30.41727,82.54493 C32.67242,81.08903 34.28679,79.81966 35.21714,78.76787 L35.21714,78.76787 Z M27.17611,84.49993 C29.88436,86.45861 36.90626,90.85 45.425,90.85 C53.94006,90.85 60.95966,86.46252 63.67044,84.50246 C65.25008,85.41418 69.82892,87.20933 71.3,87.82665 L71.3,108.1 L19.55,108.1 L19.55,87.84643 C20.99141,87.24107 25.59003,85.41073 27.17611,84.49993 L27.17611,84.49993 Z M3.45,104.10605 C3.45943,103.92803 3.61468,101.68645 5.4073,98.73808 C7.99733,94.47825 12.30362,91.45904 16.1,89.46609 L16.1,108.1 L3.45,108.1 L3.45,104.10605 L3.45,104.10605 Z M87.4,108.1 L74.75,108.1 L74.75,89.42446 C78.57444,91.40223 82.90833,94.41316 85.48318,98.69369 C87.32778,101.75982 87.39954,104.07477 87.4,104.075 L87.4,108.1 L87.4,108.1 Z" id="Shape" fill="#231F20"></path>
                <path d="M45.425,54.05 L50.025,54.05 L50.025,50.6 L47.15,50.6 L47.15,43.125 L43.7,43.125 L43.7,52.325 C43.7,53.27766 44.47211,54.05 45.425,54.05 L45.425,54.05 Z" id="Shape" fill="#231F20"></path>
            </g>
        </g>
    </g>
</svg>