<svg width="91px" height="113px" viewBox="0 0 91 113" version="1.1" xmlns="http://www.w3.org/2000/svg" xmlns:xlink="http://www.w3.org/1999/xlink">
    <g id="Page-1" stroke="none" stroke-width="1" fill="none" fill-rule="evenodd">
        <g id="40-Color-Avatars" transform="translate(-373.000000, -1657.000000)">
            <g id="user-3" transform="translate(373.072500, 1657.480000)">
                <path d="M23.575,84.525 C23.575,84.525 31.326,80.477 33.879,77.671 C32.89,78.913 14.053,102.603 21.275,109.825 L1.725,109.825 L1.725,104.075 C1.725,104.075 1.932,91.494 23.575,84.525 L23.575,84.525 Z" id="Shape" fill="#FFE1B2"></path>
                <path d="M67.275,84.525 C89.056,91.425 89.125,104.075 89.125,104.075 L89.125,109.825 L69.575,109.825 C76.797,102.603 57.96,78.913 56.971,77.671 C59.524,80.477 67.275,84.525 67.275,84.525 L67.275,84.525 Z" id="Shape" fill="#FFE1B2"></path>
                <path d="M56.971,77.671 C57.96,78.913 76.797,102.603 69.575,109.825 L21.275,109.825 C14.053,102.603 32.89,78.913 33.879,77.671 C33.902,77.648 33.925,77.625 33.925,77.625 C33.925,77.625 38.663,83.375 45.425,83.375 C52.187,83.375 56.925,77.625 56.925,77.625 C56.925,77.625 56.948,77.648 56.971,77.671 L56.971,77.671 Z" id="Shape" fill="#BF569D"></path>
                <path d="M33.925,77.625 L33.925,70.311 C37.283,72.059 41.147,73.025 45.425,73.025 C49.703,73.025 53.567,72.059 56.925,70.311 L56.925,77.625 C56.925,77.625 52.187,83.375 45.425,83.375 C38.663,83.375 33.925,77.625 33.925,77.625 L33.925,77.625 Z" id="Shape" fill="#FFD7A3"></path>
                <path d="M70.725,32.775 L70.725,45.425 C70.725,53.061 68.218,59.961 63.802,64.952 C61.847,67.137 59.547,68.954 56.925,70.311 C53.567,72.059 49.703,73.025 45.425,73.025 C41.147,73.025 37.283,72.059 33.925,70.311 C31.303,68.954 29.003,67.137 27.048,64.952 C22.632,59.961 20.125,53.061 20.125,45.425 L20.125,32.775 C20.125,32.775 44.85,27.6 56.925,15.525 L70.725,32.775 L70.725,32.775 Z" id="Shape" fill="#FFE1B2"></path>
                <path d="M63.802,64.952 C68.218,59.961 70.725,53.061 70.725,45.425 L70.725,32.775 L56.925,15.525 C44.85,27.6 20.125,32.775 20.125,32.775 L20.125,45.425 C20.125,53.061 22.632,59.961 27.048,64.952 L27.025,64.975 L6.325,70.725 C6.325,70.725 -4.692,1.725 45.425,1.725 C95.542,1.725 84.525,70.725 84.525,70.725 L63.825,64.975 L63.802,64.952 L63.802,64.952 Z" id="Shape" fill="#A67C52"></path>
                <path d="M67.942,82.92696 C65.89661,81.84941 60.83385,78.98062 58.65,76.91798 L58.65,71.33289 C60.72483,70.1454 62.62923,68.66328 64.33468,66.907 L85.92386,72.90402 L86.22838,70.99709 C86.29048,70.60816 87.74224,61.33594 87.12768,49.47852 C86.76543,42.48905 85.75251,36.06423 84.11698,30.38231 C82.04951,23.19964 78.9728,17.18008 74.97264,12.49038 C67.9029,4.20233 57.96161,0 45.425,0 C32.88839,0 22.9471,4.20233 15.87736,12.49038 C6.8678,23.05267 4.29456,38.43461 3.72209,49.47852 C3.10776,61.33571 4.55929,70.60816 4.62139,70.99709 L4.92591,72.90402 L26.51486,66.907 C28.21847,68.66167 30.12448,70.1454 32.19977,71.33289 L32.19977,76.91775 C30.01592,78.9797 24.94764,81.85217 22.90386,82.9288 C0.48277,90.20278 0.0092,103.48367 0,104.04648 L0,111.55 L90.85,111.55 L90.85,104.06557 C90.84678,103.49908 90.51535,90.1347 67.942,82.92696 L67.942,82.92696 Z M68.76885,108.1 L22.08115,108.1 C18.82596,103.28012 26.9675,89.49668 34.06668,80.23389 C36.12564,82.12265 40.19871,85.1 45.425,85.1 C50.65129,85.1 54.72436,82.12265 56.78355,80.23389 C63.8825,89.49668 72.02404,103.28012 68.76885,108.1 L68.76885,108.1 Z M45.425,74.75 C48.89317,74.75 52.16929,74.15315 55.2,72.97854 L55.2,76.96053 C54.0201,78.19402 50.28099,81.65 45.425,81.65 C40.60236,81.65 36.83864,78.19011 35.65,76.95662 L35.65,72.97831 C38.68186,74.15338 41.95752,74.75 45.425,74.75 L45.425,74.75 Z M7.1714,49.58363 C7.72225,39.09448 10.13633,24.5318 18.50787,14.72276 C24.89175,7.2427 33.948,3.45 45.425,3.45 C56.902,3.45 65.95825,7.2427 72.34213,14.72276 C80.71367,24.5318 83.12775,39.09448 83.6786,49.58363 C84.12089,58.00531 83.46493,65.22731 83.07531,68.53218 L66.76647,64.00187 C70.44785,58.89495 72.45,52.40044 72.45,45.425 L72.45,32.16987 L57.06806,12.94233 L55.70531,14.30508 C44.13999,25.8704 20.01368,31.03574 19.77126,31.08634 L18.4,31.3743 L18.4,45.425 C18.4,52.40044 20.40215,58.89495 24.08353,64.00164 L7.77469,68.53195 C7.38507,65.22708 6.72911,58.00508 7.1714,49.58363 L7.1714,49.58363 Z M28.33692,63.80568 C24.15391,59.07596 21.85,52.54833 21.85,45.425 L21.85,34.15132 C24.11067,33.61197 28.9225,32.36376 34.58763,30.29882 C44.13585,26.81869 51.57888,22.70882 56.74905,18.06627 L69,33.38013 L69,45.425 C69,52.55017 66.69517,59.07895 62.51653,63.80177 C60.66664,65.86924 58.51867,67.54387 56.12874,68.78081 C52.91725,70.45245 49.31591,71.3 45.425,71.3 C41.53409,71.3 37.93275,70.45245 34.71781,68.7792 C32.33294,67.54456 30.18612,65.87131 28.33692,63.80568 L28.33692,63.80568 Z M3.45,104.0957 C3.46288,103.74748 4.08779,92.6118 24.10377,86.16697 C24.10377,86.16697 25.44766,85.4887 26.55557,84.86287 C25.36808,86.65894 24.13804,88.62866 22.99471,90.6591 C18.67692,98.32845 17.11223,104.17045 18.30892,108.1 L3.45,108.1 L3.45,104.0957 L3.45,104.0957 Z M87.4,108.1 L72.54108,108.1 C73.738,104.17068 72.17331,98.32845 67.85529,90.6591 C66.71196,88.62843 65.48192,86.65894 64.29443,84.86287 C65.40257,85.4887 66.75405,86.1695 66.75405,86.1695 C72.60916,88.02422 80.48988,91.51838 84.78513,97.63155 C87.25027,101.13997 87.39425,103.94689 87.4,104.09363 L87.4,108.1 L87.4,108.1 Z" id="Shape" fill="#231F20"></path>
                <path d="M45.425,54.05 L50.025,54.05 L50.025,50.6 L47.15,50.6 L47.15,43.125 L43.7,43.125 L43.7,52.325 C43.7,53.27766 44.47234,54.05 45.425,54.05 L45.425,54.05 Z" id="Shape" fill="#231F20"></path>
            </g>
        </g>
    </g>
</svg>